<svg width="144" height="92" viewBox="0 0 144 92" fill="none" xmlns="http://www.w3.org/2000/svg">
<path d="M19.8798 56.3124C17.0886 56.8218 14.7325 56.7103 12.8116 55.9779C10.8859 55.2247 9.67135 53.7677 9.16804 51.6068C8.90187 50.4641 8.89798 49.5551 9.15638 48.8797C9.41478 48.2044 9.93224 47.7959 10.7087 47.6542C11.2754 47.5508 11.771 47.6119 12.1955 47.8377C12.62 48.0635 12.8855 48.4049 12.992 48.862C13.0888 49.2775 13.142 49.6469 13.1516 49.97C13.171 50.0531 13.1839 50.2024 13.1903 50.4179C13.2177 50.6295 13.258 50.8495 13.3113 51.0781C13.529 52.0131 14.1634 52.6229 15.2142 52.9076C16.2861 53.1885 17.6825 53.1719 19.4034 52.8579C21.1872 52.5323 22.5103 51.9659 23.3724 51.1587C24.2298 50.3308 24.5253 49.3454 24.2592 48.2027C24.0946 47.4963 23.7234 46.9359 23.1456 46.5215C22.5629 46.0863 21.8865 45.7657 21.1165 45.5597C20.3417 45.3329 19.2666 45.0851 17.8913 44.8162C16.1301 44.4879 14.67 44.137 13.511 43.7637C12.373 43.3866 11.3254 42.7872 10.3682 41.9655C9.42725 41.1192 8.78978 39.9792 8.45585 38.5456C8.10741 37.0497 8.19643 35.6471 8.72291 34.3381C9.27037 33.0252 10.2246 31.9088 11.5856 30.9889C12.9676 30.0652 14.687 29.4157 16.7437 29.0403C18.2757 28.7607 19.735 28.7326 21.1217 28.956C22.5035 29.1587 23.6786 29.6482 24.6471 30.4245C25.6365 31.197 26.2861 32.2481 26.5959 33.5778C26.9008 34.8868 26.9313 35.9101 26.6874 36.6477C26.4435 37.3854 25.9333 37.825 25.1568 37.9668C24.6111 38.0664 24.1107 37.9844 23.6555 37.7209C23.2213 37.4536 22.951 37.0914 22.8445 36.6343C22.7526 36.2395 22.6993 35.8702 22.6849 35.5263C22.6026 34.8915 22.5422 34.4909 22.5035 34.3247C22.3002 33.4521 21.7151 32.8657 20.7482 32.5657C19.7813 32.2656 18.6577 32.2324 17.3775 32.4661C15.5727 32.7955 14.265 33.3807 13.4545 34.2218C12.6601 35.0382 12.4008 36.0386 12.6767 37.2229C12.8606 38.0125 13.2592 38.6437 13.8726 39.1165C14.5069 39.5856 15.2349 39.9401 16.0566 40.18C16.8782 40.4199 18.0106 40.679 19.4537 40.9571C21.1988 41.3101 22.6145 41.6582 23.7008 42.0014C24.7872 42.3447 25.7702 42.9017 26.6499 43.6725C27.5506 44.4396 28.1533 45.4775 28.4582 46.7865C29.0293 49.2382 28.5253 51.3013 26.9462 52.9758C25.3833 54.6256 23.0278 55.7378 19.8798 56.3124ZM40.835 52.3903C39.387 52.6546 37.993 52.5408 36.6532 52.0489C35.3344 51.5531 34.1844 50.7017 33.2031 49.4945C32.2169 48.2665 31.5109 46.7384 31.085 44.91C30.3494 41.7519 30.3515 38.7082 31.0914 35.779C31.8264 32.829 33.3378 30.3004 35.6256 28.1933C37.9086 26.0655 40.9179 24.6607 44.6535 23.9789C45.6189 23.8027 46.6642 23.6877 47.7894 23.634C48.9355 23.5764 49.9937 23.6107 50.9639 23.7369C51.5902 23.7959 51.9808 24.1578 52.1357 24.8226C52.2615 25.3629 52.1702 25.9102 51.8618 26.4647C51.5744 27.0153 51.1578 27.3404 50.6122 27.44C50.4443 27.4707 50.3159 27.4833 50.2271 27.4778C49.0778 27.4277 48.1027 27.4215 47.302 27.4594C46.4965 27.4764 45.6635 27.5635 44.803 27.7205C42.1377 28.207 40.0212 29.2647 38.4534 30.8938C36.8808 32.5021 35.8772 34.4398 35.4426 36.7068C35.008 38.9738 35.0738 41.3228 35.64 43.7537C36.0513 45.5198 36.717 46.8279 37.6371 47.678C38.5732 48.5035 39.6079 48.8129 40.7412 48.606C42.0214 48.3724 43.0232 47.648 43.7466 46.433C44.47 45.2179 44.9595 43.3741 45.2149 40.9015C45.4704 38.4289 45.5218 35.1271 45.3691 30.9962C45.3595 30.3915 45.5194 29.9507 45.8488 29.674C46.1781 29.3973 46.6576 29.2015 47.2872 29.0866C48.7773 28.8146 49.6336 29.1565 49.8562 30.1123C49.8949 30.2785 49.9119 30.492 49.907 30.7528C49.8308 32.8678 49.8473 35.1933 49.9567 37.7292C50.0822 40.2406 50.2925 42.13 50.5877 43.3974C50.8491 44.5194 51.2081 45.3094 51.6649 45.7676C52.1168 46.2049 52.6891 46.3604 53.3816 46.234C54.0532 46.1114 54.6425 45.7765 55.1495 45.2291C55.6516 44.6609 56.2386 43.7523 56.9103 42.5034C57.0944 42.1665 57.3439 41.9694 57.6587 41.9119C57.9315 41.8621 58.1704 41.9485 58.3754 42.171C58.6013 42.3897 58.7651 42.7172 58.8668 43.1535C59.0555 43.9638 59.0062 44.6443 58.7187 45.1949C57.9759 46.6085 57.1863 47.7273 56.35 48.5514C55.5136 49.3755 54.3819 49.9178 52.9548 50.1783C51.4858 50.4464 50.2032 50.2473 49.1072 49.5809C48.0064 48.8938 47.1615 47.8025 46.5725 46.3071C45.7696 49.811 43.8571 51.8387 40.835 52.3903ZM66.4542 47.812C63.663 48.3214 61.3069 48.2099 59.386 47.4775C57.4603 46.7243 56.2457 45.2672 55.7424 43.1064C55.4763 41.9637 55.4724 41.0546 55.7308 40.3793C55.9892 39.704 56.5066 39.2955 57.2831 39.1538C57.8498 39.0504 58.3454 39.1115 58.7699 39.3373C59.1944 39.5631 59.4599 39.9045 59.5664 40.3616C59.6632 40.7771 59.7164 41.1465 59.726 41.4696C59.7454 41.5527 59.7583 41.702 59.7647 41.9174C59.7921 42.129 59.8324 42.3491 59.8856 42.5777C60.1034 43.5126 60.7377 44.1225 61.7886 44.4072C62.8605 44.6881 64.2568 44.6715 65.9778 44.3574C67.7616 44.0319 69.0846 43.4655 69.9468 42.6583C70.8041 41.8304 71.0997 40.845 70.8336 39.7023C70.669 38.9959 70.2978 38.4355 69.72 38.0211C69.1373 37.5859 68.4609 37.2653 67.6909 37.0593C66.9161 36.8325 65.841 36.5846 64.4657 36.3158C62.7045 35.9874 61.2444 35.6366 60.0854 35.2633C58.9474 34.8862 57.8998 34.2868 56.9426 33.4651C56.0016 32.6188 55.3642 31.4788 55.0302 30.0452C54.6818 28.5492 54.7708 27.1467 55.2973 25.8377C55.8448 24.5248 56.799 23.4084 58.16 22.4885C59.542 21.5648 61.2614 20.9152 63.3181 20.5399C64.8501 20.2603 66.3094 20.2322 67.6961 20.4556C69.0779 20.6583 70.253 21.1478 71.2215 21.9241C72.2109 22.6966 72.8605 23.7477 73.1702 25.0774C73.4751 26.3864 73.5056 27.4097 73.2618 28.1473C73.0179 28.885 72.5077 29.3246 71.7312 29.4664C71.1855 29.5659 70.6851 29.484 70.2299 29.2205C69.7957 28.9532 69.5254 28.591 69.4189 28.1339C69.3269 27.7391 69.2737 27.3698 69.2593 27.0258C69.177 26.391 69.1166 25.9905 69.0779 25.8243C68.8746 24.9517 68.2895 24.3653 67.3226 24.0653C66.3557 23.7652 65.2321 23.732 63.9519 23.9657C62.1471 24.2951 60.8394 24.8803 60.0289 25.7214C59.2345 26.5378 58.9752 27.5382 59.2511 28.7225C59.435 29.512 59.8336 30.1432 60.447 30.6161C61.0813 31.0852 61.8093 31.4397 62.631 31.6796C63.4526 31.9195 64.585 32.1786 66.0281 32.4567C67.7731 32.8097 69.1888 33.1578 70.2752 33.501C71.3616 33.8442 72.3446 34.4013 73.2243 35.1721C74.1249 35.9391 74.7277 36.9771 75.0326 38.2861C75.6037 40.7378 75.0997 42.8009 73.5206 44.4753C71.9577 46.1252 69.6022 47.2374 66.4542 47.812ZM88.2812 43.8283C85.4899 44.3377 83.1339 44.2262 81.213 43.4938C79.2872 42.7406 78.0727 41.2835 77.5694 39.1227C77.3032 37.98 77.2993 37.071 77.5577 36.3956C77.8161 35.7203 78.3336 35.3118 79.1101 35.1701C79.6767 35.0667 80.1723 35.1278 80.5968 35.3536C81.0213 35.5794 81.2868 35.9208 81.3933 36.3779C81.4901 36.7934 81.5433 37.1628 81.5529 37.4859C81.5723 37.569 81.5852 37.7183 81.5916 37.9337C81.619 38.1453 81.6593 38.3654 81.7126 38.594C81.9304 39.5289 82.5647 40.1388 83.6156 40.4235C84.6874 40.7044 86.0838 40.6878 87.8047 40.3738C89.5886 40.0482 90.9116 39.4818 91.7738 38.6746C92.6311 37.8467 92.9267 36.8613 92.6605 35.7186C92.496 35.0122 92.1248 34.4518 91.5469 34.0374C90.9642 33.6022 90.2879 33.2816 89.5179 33.0756C88.743 32.8488 87.6679 32.601 86.2926 32.3321C84.5314 32.0037 83.0714 31.6529 81.9123 31.2796C80.7743 30.9025 79.7267 30.3031 78.7696 29.4814C77.8286 28.6351 77.1911 27.4951 76.8572 26.0615C76.5087 24.5656 76.5978 23.163 77.1242 21.854C77.6717 20.5411 78.6259 19.4247 79.987 18.5048C81.369 17.5811 83.0883 16.9315 85.145 16.5562C86.677 16.2766 88.1364 16.2485 89.523 16.4719C90.9048 16.6746 92.08 17.1641 93.0484 17.9404C94.0379 18.7129 94.6875 19.764 94.9972 21.0937C95.3021 22.4027 95.3326 23.426 95.0887 24.1636C94.8448 24.9013 94.3346 25.3409 93.5581 25.4827C93.0125 25.5823 92.512 25.5003 92.0569 25.2368C91.6226 24.9695 91.3523 24.6073 91.2458 24.1502C91.1539 23.7554 91.1007 23.3861 91.0862 23.0422C91.004 22.4073 90.9435 22.0068 90.9048 21.8406C90.7015 20.968 90.1164 20.3816 89.1495 20.0816C88.1826 19.7815 87.059 19.7483 85.7789 19.982C83.974 20.3114 82.6663 20.8966 81.8558 21.7377C81.0614 22.5541 80.8022 23.5545 81.078 24.7388C81.2619 25.5283 81.6605 26.1596 82.2739 26.6324C82.9083 27.1015 83.6362 27.456 84.4579 27.6959C85.2795 27.9358 86.4119 28.1949 87.8551 28.473C89.6001 28.826 91.0158 29.1741 92.1022 29.5173C93.1885 29.8605 94.1716 30.4176 95.0512 31.1884C95.9519 31.9554 96.5547 32.9934 96.8595 34.3024C97.4306 36.7541 96.9266 38.8172 95.3475 40.4917C93.7846 42.1415 91.4292 43.2537 88.2812 43.8283Z" fill="#2F5E3A"/>
<path d="M61.2817 72.696C61.5545 72.6463 61.7934 72.7326 61.9984 72.9551C62.2244 73.1738 62.3882 73.5013 62.4898 73.9376C62.6785 74.7479 62.6292 75.4284 62.3417 75.9791C61.4907 77.5856 60.5744 78.7709 59.5928 79.5349C58.6322 80.2951 57.3753 80.8169 55.8223 81.1003C54.731 81.2995 53.6922 81.3483 52.7059 81.2467C51.7195 81.1452 50.5024 80.9449 49.0544 80.646C47.7372 80.3449 46.4837 80.1297 45.294 80.0002C44.6737 82.1279 43.2933 83.387 41.1526 83.7777C39.9774 83.9922 38.983 83.9029 38.1694 83.5099C37.3301 83.0999 36.8136 82.4794 36.62 81.6483C36.3829 80.6302 36.6801 79.6988 37.5116 78.8539C38.3382 77.9882 39.5701 77.406 41.207 77.1072L41.6163 77.0325L40.0704 67.8599C39.7124 65.7592 39.6909 63.9761 40.0059 62.5107C40.321 61.0453 40.9233 59.7332 41.813 58.5744C42.5848 57.5671 43.5414 56.7427 44.6828 56.1012C45.8194 55.4389 47.0803 54.9813 48.4654 54.7285C50.732 54.3149 52.6094 54.5787 54.0976 55.5201C55.5858 56.4614 56.5477 57.8671 56.9833 59.737C57.2785 61.0044 57.2872 62.075 57.0094 62.9488C56.7268 63.8018 56.1762 64.303 55.3577 64.4524C54.7701 64.5597 54.2769 64.5089 53.8782 64.3001C53.4747 64.0705 53.2124 63.696 53.0914 63.1765C53.0479 62.9895 53.01 62.6391 52.9778 62.1251C52.9682 61.5203 52.9102 60.9894 52.8037 60.5323C52.6005 59.6597 52.1784 59.0219 51.5376 58.619C50.9129 58.1915 50.0759 58.0735 49.0266 58.2651C47.1798 58.6021 45.893 59.4651 45.1664 60.8541C44.4349 62.2222 44.2303 64.209 44.5527 66.8144L45.4766 74.0211C45.6039 75.0376 45.6684 75.9247 45.6698 76.6826C47.0662 76.666 48.8298 76.7232 50.9607 76.8541C52.2037 76.9305 53.1545 76.9735 53.8132 76.9833C54.4718 76.9931 55.0425 76.9539 55.5252 76.8658C56.7424 76.6436 57.7353 76.2566 58.5038 75.7048C59.2884 75.1284 59.9649 74.3226 60.5334 73.2875C60.7174 72.9506 60.9669 72.7535 61.2817 72.696ZM69.1966 78.6593C67.7486 78.9236 66.3546 78.8098 65.0148 78.3179C63.696 77.8221 62.546 76.9707 61.5647 75.7635C60.5785 74.5356 59.8725 73.0074 59.4466 71.179C58.711 68.0209 58.7131 64.9772 59.453 62.048C60.188 59.098 61.6994 56.5694 63.9872 54.4624C66.2702 52.3345 69.2795 50.9297 73.0151 50.2479C73.9805 50.0717 75.0258 49.9567 76.151 49.903C77.2971 49.8454 78.3553 49.8797 79.3255 50.0059C79.9518 50.0649 80.3424 50.4268 80.4973 51.0917C80.6231 51.6319 80.5318 52.1792 80.2234 52.7337C79.936 53.2843 79.5194 53.6095 78.9738 53.7091C78.8059 53.7397 78.6775 53.7523 78.5887 53.7468C77.4394 53.6967 76.4643 53.6905 75.6636 53.7284C74.8581 53.7454 74.0251 53.8325 73.1646 53.9895C70.4993 54.476 68.3828 55.5337 66.815 57.1628C65.2424 58.7711 64.2388 60.7088 63.8042 62.9758C63.3696 65.2428 63.4354 67.5918 64.0016 70.0228C64.413 71.7888 65.0786 73.0969 65.9987 73.947C66.9348 74.7725 67.9695 75.0819 69.1028 74.875C70.383 74.6414 71.3848 73.917 72.1082 72.702C72.8316 71.4869 73.3211 69.6431 73.5765 67.1705C73.832 64.6979 73.8834 61.3962 73.7307 57.2652C73.7211 56.6605 73.881 56.2198 74.2104 55.943C74.5397 55.6663 75.0192 55.4705 75.6488 55.3556C77.1389 55.0836 77.9952 55.4255 78.2178 56.3813C78.2565 56.5475 78.2735 56.761 78.2686 57.0218C78.1924 59.1368 78.2089 61.4623 78.3183 63.9983C78.4438 66.5096 78.6541 68.399 78.9494 69.6664C79.2107 70.7884 79.5697 71.5784 80.0265 72.0366C80.4785 72.4739 81.0507 72.6294 81.7433 72.503C82.4148 72.3805 83.0041 72.0455 83.5111 71.4981C84.0132 70.9299 84.6002 70.0213 85.2719 68.7724C85.456 68.4355 85.7055 68.2384 86.0203 68.1809C86.2931 68.1311 86.532 68.2175 86.737 68.44C86.963 68.6587 87.1268 68.9862 87.2284 69.4225C87.4171 70.2328 87.3678 70.9133 87.0803 71.464C86.3375 72.8775 85.5479 73.9963 84.7116 74.8204C83.8752 75.6446 82.7435 76.1869 81.3164 76.4473C79.8474 76.7154 78.5648 76.5163 77.4688 75.8499C76.368 75.1628 75.5231 74.0715 74.9341 72.5761C74.1312 76.08 72.2187 78.1078 69.1966 78.6593ZM107.757 50.6651C108.169 52.4311 107.895 54.0731 106.936 55.5911C105.972 57.0884 104.348 58.3377 102.065 59.3392C103.449 59.4549 104.571 59.8567 105.431 60.5444C106.287 61.2114 106.835 62.0643 107.077 63.1031C107.46 64.7445 107.266 66.2635 106.498 67.6601C105.75 69.0529 104.457 70.2636 102.618 71.2924C100.774 72.3003 98.4463 73.061 95.6341 73.5742C94.5848 73.7657 93.7381 73.8878 93.094 73.9404C93.2085 74.526 93.0583 75.0082 92.6433 75.3872C92.2284 75.7662 91.6432 76.0246 90.8876 76.1625C90.1321 76.3004 89.5687 76.23 89.1975 75.9512C88.8472 75.6685 88.6181 75.2013 88.51 74.5496C88.0214 71.6063 87.6797 68.4954 87.4849 65.2169C87.2852 61.9176 87.2591 58.7058 87.4065 55.5815C87.4325 55.0352 87.6416 54.618 88.0339 54.3298C88.4262 54.0416 88.9792 53.8324 89.6927 53.7022C90.9729 53.4685 91.6953 53.7049 91.8598 54.4113C91.9276 54.7022 91.942 55.0461 91.9032 55.4431C91.735 57.1633 91.7024 59.4653 91.8052 62.349C91.9032 65.2119 92.1296 67.9215 92.4843 70.4777C93.511 70.3769 94.3392 70.2691 94.9688 70.1542C97.9069 69.6179 99.9613 68.8098 101.132 67.7297C102.319 66.6251 102.759 65.4182 102.455 64.1093C102.242 63.1951 101.664 62.4991 100.721 62.0214C99.7994 61.5398 98.4079 61.4363 96.5466 61.7111C96.122 61.7669 95.804 61.7166 95.5925 61.5603C95.3811 61.4039 95.227 61.118 95.1302 60.7024C94.9898 60.0999 95.002 59.5887 95.1667 59.1687C95.3315 58.7488 95.7472 58.4671 96.4139 58.3238C97.8943 58.0102 99.1866 57.5469 100.291 56.9339C101.416 56.3169 102.243 55.5921 102.771 54.7592C103.294 53.9056 103.444 53.001 103.222 52.0452C102.941 50.8401 102.123 50.0039 100.767 49.5366C99.406 49.0485 97.4874 49.0305 95.0109 49.4824C92.7654 49.8923 90.661 50.5796 88.6978 51.5444C86.7298 52.4884 85.1129 53.5308 83.8471 54.6716C83.2675 55.1889 82.7468 55.4897 82.2851 55.574C81.9074 55.6429 81.5845 55.5719 81.3166 55.3609C81.0648 55.1252 80.8929 54.81 80.801 54.4153C80.68 53.8958 80.6809 53.43 80.8036 53.0177C80.9474 52.6016 81.3833 52.078 82.1115 51.4469C83.6421 50.1278 85.5278 48.9714 87.7686 47.9776C90.0094 46.9838 92.368 46.2609 94.8445 45.8089C98.643 45.1156 101.624 45.2322 103.787 46.1587C105.95 47.0852 107.273 48.5873 107.757 50.6651ZM133.796 45.9127C134.207 47.6787 133.933 49.3208 132.974 50.8388C132.01 52.336 130.387 53.5853 128.104 54.5868C129.488 54.7025 130.609 55.1043 131.47 55.792C132.325 56.459 132.874 57.3119 133.116 58.3507C133.498 59.9921 133.305 61.5111 132.536 62.9077C131.789 64.3005 130.495 65.5112 128.657 66.54C126.813 67.548 124.485 68.3086 121.673 68.8219C120.623 69.0134 119.777 69.1354 119.133 69.188C119.247 69.7736 119.097 70.2559 118.682 70.6348C118.267 71.0138 117.682 71.2723 116.926 71.4102C116.171 71.548 115.607 71.4776 115.236 71.1988C114.886 70.9161 114.657 70.4489 114.549 69.7972C114.06 66.8539 113.718 63.743 113.523 60.4645C113.324 57.1653 113.298 53.9535 113.445 50.8291C113.471 50.2829 113.68 49.8656 114.073 49.5774C114.465 49.2892 115.018 49.08 115.731 48.9498C117.012 48.7161 117.734 48.9525 117.898 49.6589C117.966 49.9498 117.981 50.2937 117.942 50.6907C117.774 52.4109 117.741 54.7129 117.844 57.5966C117.942 60.4596 118.168 63.1691 118.523 65.7253C119.55 65.6245 120.378 65.5167 121.007 65.4018C123.946 64.8656 126 64.0574 127.17 62.9773C128.357 61.8727 128.798 60.6659 128.493 59.3569C128.28 58.4427 127.702 57.7467 126.76 57.269C125.838 56.7874 124.447 56.684 122.585 56.9587C122.161 57.0145 121.843 56.9643 121.631 56.8079C121.42 56.6516 121.266 56.3656 121.169 55.9501C121.028 55.3475 121.041 54.8363 121.205 54.4163C121.37 53.9964 121.786 53.7147 122.453 53.5714C123.933 53.2579 125.225 52.7946 126.33 52.1815C127.455 51.5646 128.281 50.8397 128.809 50.0069C129.333 49.1533 129.483 48.2486 129.26 47.2928C128.98 46.0878 128.161 45.2516 126.805 44.7842C125.445 44.2961 123.526 44.2781 121.05 44.7301C118.804 45.1399 116.7 45.8272 114.736 46.792C112.768 47.736 111.152 48.7784 109.886 49.9192C109.306 50.4365 108.785 50.7373 108.324 50.8216C107.946 50.8905 107.623 50.8195 107.355 50.6085C107.103 50.3729 106.932 50.0577 106.84 49.6629C106.719 49.1435 106.719 48.6776 106.842 48.2653C106.986 47.8492 107.422 47.3256 108.15 46.6945C109.681 45.3754 111.566 44.219 113.807 43.2252C116.048 42.2314 118.407 41.5085 120.883 41.0565C124.682 40.3632 127.662 40.4798 129.825 41.4063C131.989 42.3328 133.312 43.835 133.796 45.9127Z" fill="#2F5E3A"/>
</svg>
